HIERARCHY
ROOT Hips
{
	OFFSET 0.000000 0.000000 0.000000
	CHANNELS 6 Xposition Yposition Zposition Xrotation Yrotation Zrotation
	JOINT LeftUpLeg_virtual
	{
		OFFSET 0.000000 0.000000 0.000000
		CHANNELS 3 Xrotation Yrotation Zrotation
		JOINT LeftUpLeg
		{
			OFFSET 13.026900 -6.336304 -1.092800
			CHANNELS 3 Xrotation Yrotation Zrotation
			JOINT LeftLeg
			{
				OFFSET 0.524474 -46.096886 9.782700
				CHANNELS 3 Xrotation Yrotation Zrotation
				JOINT LeftFoot
				{
					OFFSET -0.524474 -53.427422 -12.948200
					CHANNELS 3 Xrotation Yrotation Zrotation
					JOINT LeftToeBase
					{
						OFFSET 0.192200 -14.009700 16.364100
						CHANNELS 3 Xrotation Yrotation Zrotation
						JOINT LeftToe_End
						{
							OFFSET -1.784700 -0.561700 9.474800
							CHANNELS 3 Xrotation Yrotation Zrotation
							End Site
							{
								OFFSET 0 0 0
							}
						}
					}
				}
			}
		}
	}
	JOINT RightUpLeg_virtual
	{
		OFFSET 0.000000 0.000000 0.000000
		CHANNELS 3 Xrotation Yrotation Zrotation
		JOINT RightUpLeg
		{
			OFFSET -12.883000 -6.336304 -1.092800
			CHANNELS 3 Xrotation Yrotation Zrotation
			JOINT RightLeg
			{
				OFFSET -0.524587 -46.096825 9.782800
				CHANNELS 3 Xrotation Yrotation Zrotation
				JOINT RightFoot
				{
					OFFSET 0.524587 -53.427383 -12.948300
					CHANNELS 3 Xrotation Yrotation Zrotation
					JOINT RightToeBase
					{
						OFFSET -0.192200 -14.009700 16.364100
						CHANNELS 3 Xrotation Yrotation Zrotation
						JOINT RightToe_End
						{
							OFFSET 1.784700 -0.561700 9.474800
							CHANNELS 3 Xrotation Yrotation Zrotation
							End Site
							{
								OFFSET 0 0 0
							}
						}
					}
				}
			}
		}
	}
	JOINT Spine_virtual
	{
		OFFSET 0.000000 0.000000 0.000000
		CHANNELS 3 Xrotation Yrotation Zrotation
		JOINT Spine
		{
			OFFSET 0.072000 7.257294 -0.789700
			CHANNELS 3 Xrotation Yrotation Zrotation
			JOINT Spine1
			{
				OFFSET 0.000000 12.508769 -0.658067
				CHANNELS 3 Xrotation Yrotation Zrotation
				JOINT Spine1_split
				{
					OFFSET 0.000000 12.508769 -0.658067
					CHANNELS 3 Xrotation Yrotation Zrotation
					JOINT Spine2
					{
						OFFSET 0.000000 12.508769 -0.658067
						CHANNELS 3 Xrotation Yrotation Zrotation
						JOINT Neck_virtual
						{
							OFFSET 0.000000 0.000000 0.000000
							CHANNELS 3 Xrotation Yrotation Zrotation
							JOINT Neck
							{
								OFFSET 0.000000 14.033295 7.520400
								CHANNELS 3 Xrotation Yrotation Zrotation
								JOINT Head
								{
									OFFSET 0.000000 8.198502 5.703100
									CHANNELS 3 Xrotation Yrotation Zrotation
									JOINT HeadTop_End
									{
										OFFSET 0.000000 17.760803 13.332701
										CHANNELS 3 Xrotation Yrotation Zrotation
										End Site
										{
											OFFSET 0 0 0
										}
									}
								}
							}
						}
						JOINT LeftShoulder_virtual
						{
							OFFSET 0.000000 0.000000 0.000000
							CHANNELS 3 Xrotation Yrotation Zrotation
							JOINT LeftShoulder
							{
								OFFSET 6.292450 5.785301 -0.669000
								CHANNELS 3 Xrotation Yrotation Zrotation
								JOINT LeftShoulder_split
								{
									OFFSET 6.292450 5.785301 -0.669000
									CHANNELS 3 Xrotation Yrotation Zrotation
									JOINT LeftArm
									{
										OFFSET 13.907140 -6.093903 1.965100
										CHANNELS 3 Xrotation Yrotation Zrotation
										JOINT LeftForeArm
										{
											OFFSET 34.140198 0.000000 0.000000
											CHANNELS 3 Xrotation Yrotation Zrotation
											JOINT LeftHand
											{
												OFFSET 40.960209 0.000000 0.000000
												CHANNELS 3 Xrotation Yrotation Zrotation
												End Site
												{
													OFFSET 0 0 0
												}
											}
										}
									}
								}
							}
						}
						JOINT RightShoulder_virtual
						{
							OFFSET 0.000000 0.000000 0.000000
							CHANNELS 3 Xrotation Yrotation Zrotation
							JOINT RightShoulder
							{
								OFFSET -6.292450 5.785301 -0.669000
								CHANNELS 3 Xrotation Yrotation Zrotation
								JOINT RightShoulder_split
								{
									OFFSET -6.292450 5.785301 -0.669000
									CHANNELS 3 Xrotation Yrotation Zrotation
									JOINT RightArm
									{
										OFFSET -13.907140 -6.093903 1.965100
										CHANNELS 3 Xrotation Yrotation Zrotation
										JOINT RightForeArm
										{
											OFFSET -34.140198 0.000000 0.000000
											CHANNELS 3 Xrotation Yrotation Zrotation
											JOINT RightHand
											{
												OFFSET -40.960209 0.000000 0.000000
												CHANNELS 3 Xrotation Yrotation Zrotation
												End Site
												{
													OFFSET 0 0 0
												}
											}
										}
									}
								}
							}
						}
					}
				}
			}
		}
	}
}
MOTION
Frames: 10
Frame Time: 0.03333333
-2.208127 54.754261 2.224464 0.000000 0.000000 0.000000 4.668800 -16.178975 0.977652 -22.873994 1.601281 14.266973 104.303136 21.834940 6.679474 26.056851 5.612255 -9.427988 1.695909 6.225169 24.377493 0.000000 0.000000 0.000000 6.464411 -11.268225 0.562858 -18.696494 8.158223 -8.901952 88.188711 -3.650801 -5.240072 21.848185 7.245636 9.440904 -16.241073 -8.997056 -28.995464 0.000000 0.000000 0.000000 6.137989 -13.353982 -0.527698 2.886370 2.028041 0.307755 -0.176919 0.251875 0.231557 0.135313 -0.553002 0.533693 0.000000 0.000000 0.000000 -0.747630 0.294064 0.098891 -2.510514 2.968849 -1.116288 -0.015092 -1.759415 -0.448479 0.000000 0.000000 0.000000 -0.715606 0.282106 -0.181934 0.198671 -4.777515 -20.800986 0.107632 3.052401 -2.234582 16.670721 -21.710383 -48.999845 1.568096 -26.820056 0.543436 0.000000 0.000000 0.000000 -0.471441 0.614627 0.353703 -0.035295 9.700514 21.287488 -3.060351 -5.392866 -2.988891 3.532551 3.098627 61.943505 2.615493 21.685779 -0.236648 0.000000 0.000000 0.000000 
-2.040163 54.677032 2.200199 0.000000 0.000000 0.000000 4.663091 -16.250859 0.883184 -22.851095 1.368133 14.277661 104.359881 21.871632 6.668446 26.022117 5.616191 -9.627240 1.682921 6.227557 24.355420 0.000000 0.000000 0.000000 6.551922 -11.401272 0.497362 -18.859506 7.845572 -8.850200 87.990151 -3.663217 -5.277660 21.982049 7.164708 9.450827 -16.296495 -8.997914 -28.959343 0.000000 0.000000 0.000000 6.276193 -13.228904 -0.717295 2.940505 2.085877 0.373439 -0.227660 0.269967 0.203329 0.244894 -0.747904 0.551394 0.000000 0.000000 0.000000 -0.790459 0.289444 0.100629 -2.278590 3.141713 -1.312188 0.589759 -1.397862 -0.334063 0.000000 0.000000 0.000000 -0.796414 0.301006 -0.243499 0.181865 -4.759055 -20.879743 0.093986 3.167376 -2.161138 17.012543 -21.073347 -49.113018 1.827767 -27.269674 0.627169 0.000000 0.000000 0.000000 -0.471101 0.648451 0.356086 -0.009007 9.418238 21.253389 -3.000362 -5.484922 -3.081907 3.409378 2.988264 61.773768 2.580989 21.894428 -0.226595 0.000000 0.000000 0.000000 
-1.903905 54.580917 2.175522 0.000000 0.000000 0.000000 4.651364 -16.388639 0.704033 -22.841915 1.076585 14.414489 104.456146 21.826093 6.658473 25.925303 5.638453 -9.800838 1.761101 6.254652 24.343933 0.000000 0.000000 0.000000 6.623139 -11.589637 0.332979 -18.971515 7.626402 -8.689158 87.808536 -3.635771 -5.406644 22.082480 7.095703 9.501628 -16.381746 -8.976361 -28.924891 0.000000 0.000000 0.000000 6.272192 -13.352606 -0.999336 2.947586 2.142436 0.425221 -0.292219 0.291385 0.221628 0.292711 -0.925773 0.610389 0.000000 0.000000 0.000000 -0.828547 0.273013 0.136470 -1.886361 3.238448 -1.216107 2.439077 -0.958221 -0.473854 0.000000 0.000000 0.000000 -0.848444 0.278201 -0.265921 0.197323 -4.537718 -20.864669 0.084995 3.232787 -2.011357 17.269898 -19.684921 -49.636655 1.995857 -29.088437 0.709440 0.000000 0.000000 0.000000 -0.475631 0.646561 0.394435 -0.000058 8.962141 21.373171 -2.885980 -5.368105 -3.070311 3.159162 2.601830 61.392384 2.468073 21.919482 -0.212244 0.000000 0.000000 0.000000 
-1.817349 54.485012 2.170300 0.000000 0.000000 0.000000 4.625530 -16.548672 0.461660 -22.850101 0.741354 14.668236 104.545362 21.703131 6.652167 25.826421 5.696537 -9.924934 1.893795 6.297378 24.346467 0.000000 0.000000 0.000000 6.651293 -11.832725 0.089452 -19.062467 7.518921 -8.414916 87.702136 -3.586792 -5.612976 22.127836 7.016267 9.596466 -16.503398 -8.932743 -28.895348 0.000000 0.000000 0.000000 6.136860 -13.694787 -1.341802 2.890070 2.200106 0.468599 -0.373015 0.311439 0.277625 0.301375 -1.056127 0.706182 0.000000 0.000000 0.000000 -0.883858 0.251858 0.206276 -1.381340 3.273601 -0.907684 5.321073 -0.531246 -0.828541 0.000000 0.000000 0.000000 -0.864704 0.225718 -0.250036 0.242024 -4.182861 -20.765701 0.114384 3.246222 -1.809416 17.545060 -17.602181 -50.458026 2.082177 -31.837356 0.834844 0.000000 0.000000 0.000000 -0.485739 0.611233 0.464505 -0.005518 8.387732 21.586927 -2.721567 -5.031580 -2.998586 2.849132 1.984161 60.830874 2.294757 21.738231 -0.185355 0.000000 0.000000 0.000000 
-1.743103 54.385002 2.136669 0.000000 0.000000 0.000000 4.607111 -16.753243 0.178446 -22.888256 0.385070 15.015905 104.608117 21.512388 6.634354 25.776961 5.796131 -10.025226 2.035912 6.348279 24.362959 0.000000 0.000000 0.000000 6.646244 -12.144484 -0.200329 -19.192449 7.528668 -8.046684 87.710783 -3.526875 -5.883411 22.139753 6.910176 9.728775 -16.717527 -8.852764 -28.872938 0.000000 0.000000 0.000000 5.940612 -14.202633 -1.705166 2.773073 2.277372 0.506367 -0.449268 0.330306 0.357725 0.292419 -1.125640 0.791668 0.000000 0.000000 0.000000 -0.952495 0.237006 0.300970 -0.809737 3.290702 -0.491180 8.915334 -0.230491 -1.339888 0.000000 0.000000 0.000000 -0.852801 0.164294 -0.210097 0.307844 -3.788571 -20.606438 0.156122 3.209472 -1.641240 17.866691 -14.994017 -51.444080 2.129536 -34.950624 1.000076 0.000000 0.000000 0.000000 -0.492091 0.561543 0.552241 -0.034409 7.777512 21.817277 -2.479671 -4.578330 -2.913667 2.491327 1.157615 60.137992 2.076511 21.352478 -0.148087 0.000000 0.000000 0.000000 
-1.661669 54.276501 2.042610 0.000000 0.000000 0.000000 4.611566 -16.968623 -0.118739 -23.013732 0.036118 15.421420 104.664658 21.262843 6.594978 25.883314 5.934312 -10.164640 2.199122 6.413716 24.370395 0.000000 0.000000 0.000000 6.652699 -12.472398 -0.514801 -19.413506 7.659477 -7.597318 87.853267 -3.478869 -6.184986 22.146586 6.763298 9.850350 -17.009796 -8.740880 -28.849906 0.000000 0.000000 0.000000 5.753130 -14.778221 -2.065298 2.636302 2.399718 0.541296 -0.501735 0.353960 0.446970 0.231720 -1.089032 0.799780 0.000000 0.000000 0.000000 -1.018235 0.244674 0.407723 -0.211674 3.300591 -0.074013 12.881429 -0.108787 -1.935776 0.000000 0.000000 0.000000 -0.823742 0.119192 -0.161419 0.385845 -3.430132 -20.410455 0.171508 3.178629 -1.514132 18.215949 -12.234960 -52.473222 2.191537 -38.018172 1.208036 0.000000 0.000000 0.000000 -0.492906 0.520987 0.646582 -0.096652 7.207696 21.974856 -2.198115 -4.056782 -2.852091 2.126987 0.191237 59.330548 1.846367 20.814276 -0.113360 0.000000 0.000000 0.000000 
-1.582754 54.153610 1.882450 0.000000 0.000000 0.000000 4.648987 -17.181566 -0.411909 -23.280840 -0.292265 15.854220 104.742658 20.954998 6.540721 26.209017 6.114571 -10.425486 2.433095 6.504641 24.337320 0.000000 0.000000 0.000000 6.707725 -12.792158 -0.830652 -19.762951 7.885797 -7.076641 88.097310 -3.469321 -6.481073 22.187147 6.559437 9.912984 -17.326771 -8.610290 -28.816042 0.000000 0.000000 0.000000 5.618669 -15.367813 -2.399461 2.533915 2.580173 0.569412 -0.521781 0.389176 0.527641 0.159497 -0.943534 0.793460 0.000000 0.000000 0.000000 -1.069719 0.284572 0.510224 0.355002 3.319540 0.251359 16.898884 -0.150781 -2.520329 0.000000 0.000000 0.000000 -0.793646 0.109617 -0.111915 0.462819 -3.131671 -20.215535 0.199804 3.274353 -1.360623 18.478184 -9.742177 -53.447849 2.234699 -40.866217 1.397731 0.000000 0.000000 0.000000 -0.487636 0.509211 0.731653 -0.192608 6.728738 22.031045 -1.896097 -3.524526 -2.823158 1.740667 -0.784253 58.453777 1.621621 20.192402 -0.084182 0.000000 0.000000 0.000000 
-1.511998 54.019558 1.695587 0.000000 0.000000 0.000000 4.743162 -17.376384 -0.675982 -23.716628 -0.580368 16.274497 104.857652 20.612432 6.468012 26.656579 6.369619 -10.810948 2.762571 6.624276 24.258967 0.000000 0.000000 0.000000 6.836467 -13.060701 -1.119146 -20.276434 8.157968 -6.518018 88.393808 -3.502172 -6.764406 22.287969 6.298079 9.895838 -17.635393 -8.468752 -28.774098 0.000000 0.000000 0.000000 5.578588 -15.928776 -2.670425 2.519226 2.825279 0.576795 -0.508703 0.434082 0.589359 0.131064 -0.836913 0.814624 0.000000 0.000000 0.000000 -1.086251 0.362772 0.589167 0.844651 3.366036 0.440237 20.640439 -0.342461 -3.006718 0.000000 0.000000 0.000000 -0.776138 0.147893 -0.063680 0.537556 -2.897059 -20.053447 0.341901 3.537723 -1.230580 18.504068 -7.861845 -54.247275 2.217042 -43.354978 1.490289 0.000000 0.000000 0.000000 -0.477775 0.533374 0.793174 -0.326943 6.394175 21.983189 -1.562331 -2.982426 -2.746646 1.341541 -1.613331 57.538907 1.418639 19.577139 -0.063003 0.000000 0.000000 0.000000 
-1.438186 53.875546 1.483768 0.000000 0.000000 0.000000 4.924348 -17.564810 -0.886125 -24.308022 -0.826989 16.638669 105.019985 20.271839 6.380841 27.073973 6.714337 -11.272519 3.136560 6.758437 24.153074 0.000000 0.000000 0.000000 7.051802 -13.294950 -1.355881 -21.002236 8.440409 -5.954730 88.742858 -3.558344 -7.041501 22.469015 6.018384 9.798711 -17.904233 -8.327457 -28.731167 0.000000 0.000000 0.000000 5.648368 -16.436784 -2.858630 2.617496 3.123567 0.552774 -0.476897 0.487514 0.625577 0.179020 -0.788452 0.838078 0.000000 0.000000 0.000000 -1.073670 0.473839 0.632808 1.252649 3.427472 0.490408 23.919698 -0.666453 -3.305653 0.000000 0.000000 0.000000 -0.777847 0.233748 -0.022690 0.613423 -2.728760 -19.904032 0.671213 3.891186 -1.088984 18.217163 -6.738995 -54.789565 2.066653 -45.385736 1.438295 0.000000 0.000000 0.000000 -0.474995 0.588321 0.824722 -0.495926 6.246247 21.869868 -1.236638 -2.494128 -2.603248 0.951759 -2.101538 56.612344 1.246684 19.049674 -0.043238 0.000000 0.000000 0.000000 
-1.364612 53.712845 1.177258 0.000000 0.000000 0.000000 5.222401 -17.731116 -1.029649 -25.045675 -1.067236 16.923515 105.269287 19.948604 6.287242 27.372345 7.121276 -11.788813 3.462824 6.884019 24.045244 0.000000 0.000000 0.000000 7.393634 -13.513908 -1.525997 -22.013546 8.688782 -5.415155 89.191602 -3.613175 -7.313490 22.742179 5.780306 9.668275 -18.122150 -8.193284 -28.695240 0.000000 0.000000 0.000000 5.851641 -16.890916 -2.972269 2.838366 3.450601 0.495563 -0.438574 0.546963 0.635005 0.215357 -0.765321 0.874139 0.000000 0.000000 0.000000 -1.043646 0.604902 0.637018 1.594555 3.518355 0.417208 26.581203 -1.062165 -3.407417 0.000000 0.000000 0.000000 -0.797176 0.351380 0.002313 0.697688 -2.630173 -19.746992 1.248256 4.265436 -0.965068 17.567786 -6.436883 -54.971309 1.880491 -46.869380 1.274704 0.000000 0.000000 0.000000 -0.487776 0.662108 0.824599 -0.696933 6.307478 21.750780 -0.898383 -2.021353 -2.417475 0.614669 -2.121898 55.687816 1.104320 18.671905 -0.008518 0.000000 0.000000 0.000000 
